<svg width="208" height="508" viewBox="0 0 208 508" fill="none" xmlns="http://www.w3.org/2000/svg">
<g filter="url(#filter0_d_204_2)">
<path d="M203.5 250C203.5 318.988 192.314 381.422 174.246 426.591C165.212 449.177 154.467 467.421 142.561 480.01C130.656 492.599 117.625 499.5 104 499.5C90.3747 499.5 77.3437 492.599 65.4388 480.01C53.5328 467.421 42.7878 449.177 33.7536 426.591C15.6861 381.422 4.5 318.988 4.5 250C4.5 181.012 15.6861 118.578 33.7536 73.409C42.7878 50.8233 53.5328 32.5793 65.4388 19.9898C77.3437 7.40139 90.3747 0.5 104 0.5C117.625 0.5 130.656 7.40139 142.561 19.9898C154.467 32.5793 165.212 50.8233 174.246 73.409C192.314 118.578 203.5 181.012 203.5 250Z" stroke="black" shape-rendering="crispEdges"/>
</g>
<defs>
<filter id="filter0_d_204_2" x="0" y="0" width="208" height="508" filterUnits="userSpaceOnUse" color-interpolation-filters="sRGB">
<feFlood flood-opacity="0" result="BackgroundImageFix"/>
<feColorMatrix in="SourceAlpha" type="matrix" values="0 0 0 0 0 0 0 0 0 0 0 0 0 0 0 0 0 0 127 0" result="hardAlpha"/>
<feOffset dy="4"/>
<feGaussianBlur stdDeviation="2"/>
<feComposite in2="hardAlpha" operator="out"/>
<feColorMatrix type="matrix" values="0 0 0 0 0 0 0 0 0 0 0 0 0 0 0 0 0 0 0.25 0"/>
<feBlend mode="normal" in2="BackgroundImageFix" result="effect1_dropShadow_204_2"/>
<feBlend mode="normal" in="SourceGraphic" in2="effect1_dropShadow_204_2" result="shape"/>
</filter>
</defs>
</svg>
